<?xml version="1.0" encoding="utf-8"?>
<!-- Generator: Adobe Illustrator 22.1.0, SVG Export Plug-In . SVG Version: 6.00 Build 0)  -->
<svg version="1.1" xmlns="http://www.w3.org/2000/svg" xmlns:xlink="http://www.w3.org/1999/xlink" x="0px" y="0px"
	 viewBox="0 0 283.5 283.5" style="enable-background:new 0 0 283.5 283.5;" xml:space="preserve">
<style type="text/css">
	.st0{opacity:0.5;}
	.st2{fill:#010101;}
	.st3{fill:#FFFFFF;}
	.st4{display:none;}
	.st5{display:inline;}
	.st6{fill:#FBB040;}
</style>
<g id="Layer_4">
	<rect x="0" class="st0" width="283.5" height="283.5"/>
</g>
<g id="Layer_3">
	<g class="st1">
		<g>
			<path class="st2" d="M140.9,219.5c-11,0-26.7-2.4-39.6-13.9c-14.7-13.1-22.1-34.6-22.1-63.9c0-43.6,26.8-77.7,61-77.7
				c27.4,0,44.3,18,53.2,56.6c0.6,2.8,7.3,19.6,9.3,23.2c2.5,4.5,2,10.1-1.3,14.1c-2.1,2.5-5.1,3.4-7.4,4c-0.4,0.1-1.3,0.4-1.9,0.6
				l0.1,2.4c0.8,15,1.5,27.9-10.2,38.8C171.4,213.5,156,219.5,140.9,219.5z"/>
			<path class="st3" d="M140.2,65c26.9,0,43.5,17.7,52.2,55.8c0.6,2.8,7.4,19.9,9.4,23.4c2.3,4.1,1.9,9.3-1.2,12.9
				c-1.9,2.3-4.6,3-6.9,3.6c-0.8,0.2-2.2,0.6-2.7,0.9c0,0.1,0,0.1,0,0.2c0,1,0.1,1.9,0.1,2.9c0.8,14.7,1.4,27.5-9.9,38
				c-10.5,9.8-25.6,15.6-40.4,15.6c-10.8,0-26.3-2.4-39-13.7c-14.4-12.9-21.8-34.1-21.8-63.2C80.2,98.7,106.5,65,140.2,65 M140.2,63
				c-34.8,0-62,34.6-62,78.7c0,29.6,7.5,51.4,22.4,64.7c13.1,11.7,29.2,14.2,40.3,14.2c15.3,0,31-6.1,41.8-16.2
				c12-11.2,11.3-25,10.5-39.6c0-0.5-0.1-1.1-0.1-1.7c0.4-0.1,0.9-0.3,1.1-0.3c2.4-0.7,5.6-1.5,7.9-4.3c3.6-4.3,4.1-10.4,1.4-15.2
				c-1.9-3.4-8.6-20.3-9.2-22.9c-4.5-19.6-10.9-33.7-19.8-43.1C165.6,67.6,154.3,63,140.2,63L140.2,63z"/>
		</g>
		<path class="st3" d="M187,162.2c0.8,15.9,2.1,27.8-8.4,37.7c-9.8,9.1-23.8,14.5-37.7,14.5c-21.2,0-56.7-9.5-56.7-72.8
			c0-40.7,24.6-72.6,55.9-72.6c26.1,0,40.4,18.4,48.2,52.6c0.7,3.2,7.6,20.6,9.9,24.6c1.5,2.7,1.2,6-0.7,8.3
			C194.8,157.8,186.7,156.1,187,162.2z"/>
		<g>
			<g>
				<line class="st3" x1="186.1" y1="127.4" x2="190.3" y2="127.4"/>
				<path class="st2" d="M190.1,124.8l-1.8,0c0,0,0,0,0,0c-0.9-2.7-2.9-5.1-6-6.1c-1-0.4-2.1-0.5-3.2-0.5l-17.4,0h-1.6h-27.2
					c-4.3,0-8.5,1.7-11.5,4.8l-9.1,9.1c-1.1,1.1-1.2,3,0,3.9c0.5,0.4,1,0.6,1.6,0.6c0.7,0,1.3-0.2,1.8-0.7l9.2-9.2
					c2.1-2.1,5-3.3,7.9-3.3h15c2.5,0,5.4,19.3,5.4,19.3c0.8,4.1,4.2,7.2,8.4,7.6l14.9,0.1c0.3,0,0.5,0,0.8,0c4.7,0,8.7-3.5,9.4-8.2
					l1.8-12.2h1.8c1.5,0,2.7-1.4,2.5-2.9C192.6,125.7,191.4,124.8,190.1,124.8z M181.7,141.5c-0.3,2.4-2.4,4-4.8,3.8l-14.9-0.1
					c-1.9-0.2-3.4-1.7-3.8-3.5l-2.5-13.1c-0.2-1.3,0.1-2.6,0.9-3.6c0.8-1,2.1-1.6,3.4-1.6h1.6l17.5,0c0.8,0,1.5,0.1,2.2,0.5
					c1.3,0.8,2.1,2,2.2,3.3c0,0.1,0,0.2,0,0.3c0,0.2,0,0.4,0.1,0.5c0,0.1,0,0.2,0,0.3L181.7,141.5z"/>
			</g>
		</g>
	</g>
</g>
<g id="Layer_6" class="st4">
	<g id="XMLID_2_" class="st5">
		<g>
			<rect x="-19.8" y="-35" class="st6" width="326.6" height="377.3"/>
		</g>
		<g>
		</g>
	</g>
</g>
<g id="Layer_2" class="st4">
	<path class="st5" d="M0,0v283.5h283.5V0H0z M141.7,255.1c-62.6,0-113.4-50.8-113.4-113.4S79.1,28.3,141.7,28.3
		s113.4,50.8,113.4,113.4S204.4,255.1,141.7,255.1z"/>
</g>
</svg>
