<?xml version="1.0" encoding="utf-8"?>
<!-- Generator: Adobe Illustrator 22.1.0, SVG Export Plug-In . SVG Version: 6.00 Build 0)  -->
<svg version="1.1" id="Layer_1" xmlns="http://www.w3.org/2000/svg" x="0px" y="0px"
     viewBox="0 0 283.5 283.5" style="enable-background:new 0 0 283.5 283.5;" xml:space="preserve">
   <style type="text/css">
    .black{fill:#010101;}
    .white{fill:#FFFFFF;}
     @keyframes spin {
     0% {
            transform: rotate(0deg);
        }
    100% {
        transform: rotate(2520deg);
        }
     }
   #circle {
      transform-origin: center center;
      animation: spin 5s infinite ease-in-out;
     }
  </style>
  <g id="circle">
	  <path d="M262.6,147.4c-3.1,0-5.7-2.5-5.7-5.7c0-63.5-51.7-115.2-115.2-115.2c-52.1,0-97.9,35.1-111.3,85.4c-0.8,3-3.9,4.8-6.9,4
		c-3-0.8-4.8-3.9-4-6.9c14.8-55.2,65.1-93.8,122.3-93.8c69.8,0,126.6,56.8,126.6,126.6C268.3,144.8,265.7,147.4,262.6,147.4z"/>
    <path d="M67.6,243c-1.2,0-2.4-0.4-3.5-1.2c-31.1-24.1-49-60.6-49-100c0-3.1,2.5-5.7,5.7-5.7s5.7,2.5,5.7,5.7
		c0,35.9,16.3,69,44.6,91c2.5,1.9,2.9,5.5,1,8C71,242.2,69.3,243,67.6,243z"/>
    <path d="M141.8,268.4c-16.2,0-31.9-3-46.7-8.9c-2.9-1.2-4.3-4.5-3.2-7.4c1.2-2.9,4.5-4.3,7.4-3.2c13.5,5.4,27.8,8.1,42.5,8.1
		c13.6,0,27-2.4,39.6-7c2.9-1.1,6.2,0.4,7.3,3.4c1.1,2.9-0.4,6.2-3.4,7.3C171.4,265.8,156.8,268.4,141.8,268.4z"/>
    <path d="M210.9,246.7c-1.8,0-3.6-0.9-4.7-2.4c-1.8-2.6-1.1-6.1,1.4-7.9c10.4-7.2,19.4-15.9,26.8-26c1.9-2.5,5.4-3.1,7.9-1.2
		c2.5,1.9,3.1,5.4,1.2,7.9c-8.1,11.1-18,20.7-29.4,28.6C213.1,246.3,212,246.7,210.9,246.7z"/>
  </g>
  <path class="black" d="M140.9,219.5c-11,0-26.7-2.4-39.6-13.9c-14.7-13.1-22.1-34.6-22.1-63.9c0-43.6,26.8-77.7,61-77.7
      c27.4,0,44.3,18,53.2,56.6c0.6,2.8,7.3,19.6,9.3,23.2c2.5,4.5,2,10.1-1.3,14.1c-2.1,2.5-5.1,3.4-7.4,4c-0.4,0.1-1.3,0.4-1.9,0.6
      l0.1,2.4c0.8,15,1.5,27.9-10.2,38.8C171.4,213.5,156,219.5,140.9,219.5z"/>
  <path class="white" d="M187,162.2c0.8,15.9,2.1,27.8-8.4,37.7c-9.8,9.1-23.8,14.5-37.7,14.5c-21.2,0-56.7-9.5-56.7-72.8
    c0-40.7,24.6-72.6,55.9-72.6c26.1,0,40.4,18.4,48.2,52.6c0.7,3.2,7.6,20.6,9.9,24.6c1.5,2.7,1.2,6-0.7,8.3
    C194.8,157.8,186.7,156.1,187,162.2z"/>
  <path class="black" d="M190.1,124.8l-1.8,0c0,0,0,0,0,0c-0.9-2.7-2.9-5.1-6-6.1c-1-0.4-2.1-0.5-3.2-0.5l-17.4,0h-1.6h-27.2
        c-4.3,0-8.5,1.7-11.5,4.8l-9.1,9.1c-1.1,1.1-1.2,3,0,3.9c0.5,0.4,1,0.6,1.6,0.6c0.7,0,1.3-0.2,1.8-0.7l9.2-9.2
        c2.1-2.1,5-3.3,7.9-3.3h15c2.5,0,5.4,19.3,5.4,19.3c0.8,4.1,4.2,7.2,8.4,7.6l14.9,0.1c0.3,0,0.5,0,0.8,0c4.7,0,8.7-3.5,9.4-8.2
        l1.8-12.2h1.8c1.5,0,2.7-1.4,2.5-2.9C192.6,125.7,191.4,124.8,190.1,124.8z M181.7,141.5c-0.3,2.4-2.4,4-4.8,3.8l-14.9-0.1
        c-1.9-0.2-3.4-1.7-3.8-3.5l-2.5-13.1c-0.2-1.3,0.1-2.6,0.9-3.6c0.8-1,2.1-1.6,3.4-1.6h1.6l17.5,0c0.8,0,1.5,0.1,2.2,0.5
        c1.3,0.8,2.1,2,2.2,3.3c0,0.1,0,0.2,0,0.3c0,0.2,0,0.4,0.1,0.5c0,0.1,0,0.2,0,0.3L181.7,141.5z"/>

</svg>
